<?xml version="1.0" encoding="UTF-8"?>
<svg id="Layer_1" xmlns="http://www.w3.org/2000/svg" version="1.1" viewBox="0 0 298.89 89.7">
  <!-- Generator: Adobe Illustrator 30.1.0, SVG Export Plug-In . SVG Version: 2.1.1 Build 136)  -->
  <defs>
    <style>
      .st0 {
        fill: #fcb018;
      }
    </style>
  </defs>
  <g>
    <path class="st0" d="M115.29,26.64h6.52l10.39,27.56h-.71c2.1-7.81,3.55-16.23,4.35-25.25.06-.8.32-1.41.78-1.82.46-.41,1.07-.61,1.84-.58l5.46.09-12.69,31.07h-3.95l-11.98-31.07Z"/>
    <path class="st0" d="M147.14,56.93c-1.64-.96-2.92-2.29-3.84-3.97-.92-1.69-1.38-3.61-1.38-5.77s.51-4.33,1.53-6.26c1.02-1.92,2.41-3.45,4.17-4.59,1.76-1.14,3.72-1.71,5.88-1.71,1.72,0,3.22.36,4.5,1.09,1.29.73,2.28,1.69,2.97,2.91.69,1.21,1.04,2.53,1.04,3.95,0,1.04-.18,1.8-.53,2.29-.35.49-.79.79-1.31.91s-1.19.18-2.02.18h-11.63v-1.51h11.5l-2.04,1.2.04-1.15c0-1.27-.16-2.53-.49-3.77-.33-1.24-.84-2.28-1.55-3.11-.71-.83-1.6-1.24-2.66-1.24-.89,0-1.64.27-2.26.82-.62.55-1.1,1.32-1.44,2.31s-.51,2.15-.51,3.48c0,1.69.32,3.42.95,5.19.64,1.78,1.64,3.28,3.02,4.5,1.38,1.23,3.1,1.84,5.17,1.84.89,0,1.73-.16,2.53-.47.8-.31,1.58-.79,2.35-1.44l.62.71c-1.12,1.57-2.42,2.8-3.88,3.71-1.46.9-3.2,1.35-5.21,1.35s-3.88-.48-5.53-1.44Z"/>
    <path class="st0" d="M169.42,56.93c-1.64-.96-2.92-2.29-3.82-4-.9-1.7-1.35-3.62-1.35-5.75,0-2.31.53-4.42,1.6-6.35,1.07-1.92,2.5-3.45,4.31-4.57,1.8-1.12,3.79-1.69,5.95-1.69,1.15,0,2.31.15,3.46.44,1.15.3,2.03.65,2.62,1.07l.84,5.24c.09.53-.02.97-.31,1.31s-.67.5-1.11.47c-.44-.03-.84-.27-1.2-.71-1.54-1.89-2.97-3.25-4.31-4.08-1.33-.83-2.53-1.24-3.59-1.24-.86,0-1.57.22-2.13.67-.56.44-.97,1.04-1.22,1.78-.25.74-.38,1.57-.38,2.49,0,1.83.42,3.7,1.26,5.59.84,1.89,2.01,3.46,3.51,4.71s3.16,1.86,4.99,1.86c.86,0,1.67-.14,2.42-.42.75-.28,1.43-.66,2.02-1.13l.67.67c-1.21,1.63-2.46,2.88-3.73,3.77s-2.9,1.33-4.88,1.33c-2.1,0-3.97-.48-5.62-1.44Z"/>
    <path class="st0" d="M188.55,56.73c-.93-1.09-1.4-2.99-1.4-5.68l.09-14.25h-2.31v-.89l7.99-7.06v6.39h8.7v1.55h-8.7v16.87c0,1.33.07,2.21.2,2.62s.33.62.6.62c.41,0,1.06-.58,1.93-1.73.87-1.15,1.86-2.77,2.95-4.84.24-.41.55-.67.95-.75s.75,0,1.07.27c.31.27.47.65.47,1.15v5.02c-1.3.65-2.7,1.21-4.19,1.66-1.49.46-2.92.69-4.28.69-1.78,0-3.13-.55-4.06-1.64Z"/>
    <path class="st0" d="M208.08,56.91c-1.64-.98-2.92-2.32-3.84-4.02s-1.38-3.62-1.38-5.75c0-2.28.52-4.38,1.55-6.3,1.04-1.92,2.45-3.45,4.24-4.57,1.79-1.12,3.78-1.69,5.97-1.69,1.98,0,3.78.49,5.39,1.46,1.61.98,2.88,2.34,3.79,4.08.92,1.75,1.38,3.74,1.38,5.99s-.5,4.39-1.49,6.26-2.36,3.33-4.11,4.39c-1.75,1.06-3.71,1.6-5.9,1.6s-3.97-.49-5.61-1.46ZM219.5,55.24c.5-.34.88-.83,1.13-1.46.25-.64.38-1.4.38-2.29,0-1.89-.54-3.96-1.62-6.19s-2.45-4.12-4.11-5.66c-1.66-1.54-3.27-2.31-4.84-2.31-.71,0-1.32.17-1.82.51-.5.34-.88.83-1.13,1.46-.25.64-.38,1.4-.38,2.29,0,1.89.55,3.96,1.64,6.19s2.46,4.12,4.11,5.66c1.64,1.54,3.25,2.31,4.82,2.31.71,0,1.32-.17,1.82-.51Z"/>
    <path class="st0" d="M229.71,26.64h7.37c3.46,0,6.34.47,8.63,1.4,2.29.93,3.98,2.19,5.06,3.77,1.08,1.58,1.62,3.41,1.62,5.48,0,2.22-.61,4.19-1.84,5.93-1.23,1.73-2.92,3.07-5.08,4.02-2.16.95-4.57,1.42-7.23,1.42h-3.11v-1.69c.71.09,1.46.13,2.26.13,3.02,0,5.16-.83,6.44-2.51s1.91-3.91,1.91-6.72c0-2.16-.47-3.99-1.42-5.5s-2.15-2.64-3.62-3.4-2.95-1.13-4.46-1.13c-.33.03-.64.04-.93.04l.62-.58v30.4h-6.21v-31.07Z"/>
    <path class="st0" d="M256.39,31.28c-.59-.52-.87-1.19-.84-2.02,0-.83.3-1.53.91-2.11.61-.58,1.37-.87,2.29-.87.86,0,1.58.26,2.17.78.59.52.89,1.19.89,2.02-.03.83-.35,1.53-.96,2.11s-1.37.87-2.29.87c-.86,0-1.58-.26-2.17-.78ZM255.77,35.25h5.77v22.46h-5.77v-22.46Z"/>
    <path class="st0" d="M264.38,57.71l9.81-11.27.36.75c-.98,3.2-1.61,5.9-1.91,8.12-.12.83-.41,1.44-.87,1.84-.46.4-1.09.6-1.89.6l-5.5-.04ZM273.88,48.03l-.31-.27-8.57-12.52h6.79l5.1,8.34.31.27,9.5,13.85h-6.79l-6.04-9.68ZM276.23,44.7l2.49-9.41,5.33-.09c.53,0,.94.14,1.22.42.28.28.39.62.33,1-.06.38-.3.74-.71,1.07-3.79,2.78-6.54,5.33-8.25,7.63l-.4-.62Z"/>
  </g>
  <g>
    <path class="st0" d="M124.03,71.05c0-1.69,1.21-2.88,2.9-2.88,1.09,0,1.95.51,2.33,1.43l-1.17.68c-.28-.53-.7-.77-1.17-.77-.76,0-1.36.57-1.36,1.55s.6,1.55,1.36,1.55c.47,0,.89-.23,1.17-.77l1.17.69c-.38.89-1.24,1.42-2.33,1.42-1.69,0-2.9-1.2-2.9-2.88Z"/>
    <path class="st0" d="M140.12,68.17v1.5c-.13,0-.22-.02-.34-.02-.83,0-1.38.49-1.38,1.56v2.64h-1.51v-5.6h1.44v.74c.37-.54.99-.82,1.79-.82Z"/>
    <path class="st0" d="M152.8,71.51h-3.93c.14.7.7,1.12,1.49,1.12.55,0,.95-.18,1.3-.54l.8.94c-.48.59-1.21.91-2.14.91-1.8,0-2.97-1.22-2.97-2.88s1.19-2.88,2.77-2.88,2.7,1.1,2.7,2.9c0,.12-.02.3-.03.44ZM148.85,70.57h2.56c-.11-.71-.6-1.17-1.27-1.17s-1.18.45-1.29,1.17Z"/>
    <path class="st0" d="M165.05,70.66v3.19h-1.41v-.7c-.28.51-.82.78-1.58.78-1.22,0-1.94-.73-1.94-1.7s.65-1.67,2.23-1.67h1.2c0-.7-.39-1.1-1.2-1.1-.55,0-1.12.2-1.5.52l-.54-1.13c.57-.44,1.41-.68,2.24-.68,1.58,0,2.5.79,2.5,2.49ZM163.55,72.08v-.57h-1.03c-.71,0-.93.28-.93.66,0,.41.32.68.85.68.5,0,.94-.25,1.11-.76Z"/>
    <path class="st0" d="M176.54,73.58c-.31.24-.76.35-1.23.35-1.23,0-1.94-.68-1.94-2.01v-2.3h-.8v-1.25h.8v-1.36h1.51v1.36h1.29v1.25h-1.29v2.28c0,.48.24.74.65.74.22,0,.44-.07.61-.21l.41,1.14Z"/>
    <path class="st0" d="M183.97,66.57c0-.51.38-.91.94-.91s.94.37.94.87c0,.54-.38.94-.94.94s-.94-.4-.94-.91ZM184.15,68.26h1.51v5.6h-1.51v-5.6Z"/>
    <path class="st0" d="M198.98,68.26l-2.19,5.6h-1.56l-2.18-5.6h1.55l1.44,3.81,1.49-3.81h1.45Z"/>
    <path class="st0" d="M211.29,71.51h-3.93c.15.7.7,1.12,1.49,1.12.55,0,.95-.18,1.3-.54l.8.94c-.48.59-1.21.91-2.14.91-1.8,0-2.96-1.22-2.96-2.88s1.19-2.88,2.77-2.88,2.7,1.1,2.7,2.9c0,.12-.02.3-.03.44ZM207.34,70.57h2.56c-.11-.71-.6-1.17-1.28-1.17s-1.18.45-1.28,1.17Z"/>
    <path class="st0" d="M236.93,68.26l-1.88,5.6h-1.45l-1.17-3.48-1.21,3.48h-1.45l-1.87-5.6h1.42l1.23,3.79,1.27-3.79h1.28l1.24,3.79,1.27-3.79h1.33Z"/>
    <path class="st0" d="M243.88,71.05c0-1.69,1.21-2.88,2.86-2.88s2.85,1.2,2.85,2.88-1.2,2.88-2.85,2.88-2.86-1.2-2.86-2.88ZM248.06,71.05c0-.97-.57-1.55-1.32-1.55s-1.33.58-1.33,1.55.58,1.55,1.33,1.55,1.32-.58,1.32-1.55Z"/>
    <path class="st0" d="M260.59,68.17v1.5c-.13,0-.22-.02-.34-.02-.83,0-1.38.49-1.38,1.56v2.64h-1.51v-5.6h1.44v.74c.37-.54.99-.82,1.79-.82Z"/>
    <path class="st0" d="M270.48,71.66l-.72.77v1.43h-1.51v-7.72h1.51v4.37l2.2-2.25h1.8l-2.16,2.37,2.36,3.23h-1.83l-1.64-2.2Z"/>
    <path class="st0" d="M280.72,73.33l.5-1.17c.46.32,1.17.54,1.81.54.7,0,.96-.2.96-.51,0-.92-3.14.02-3.14-2.22,0-1.06.89-1.81,2.41-1.81.71,0,1.51.18,2,.49l-.5,1.15c-.51-.31-1.02-.42-1.5-.42-.68,0-.97.23-.97.52,0,.96,3.14.03,3.14,2.24,0,1.04-.9,1.78-2.45,1.78-.88,0-1.77-.26-2.25-.6Z"/>
  </g>
  <g>
    <polygon class="st0" points="64.66 40.46 55.7 40.46 55.7 43.18 64.69 43.18 64.66 40.46"/>
    <path class="st0" d="M58.75,68.81L12.06,26.27l1.52-2.98c2.04-.02,15.23.17,15.23.17l16.07,15.9v-19.03h10.83s0,5.16,0,5.16h-8.5l2.31-2.56c-.04,2.97.03,23.54,0,25.98,0,0-22.57-22.46-22.57-22.46,0,0-11.2.02-11.2.02,0,0,0,0,0,0l43.01,42.34h0Z"/>
    <g>
      <path class="st0" d="M79.88,45.59l-1.83-1.82-3.23,2.98c1.73-.22,3.45-.58,5.05-1.16Z"/>
      <path class="st0" d="M78.8,33.97c.1,2.15-1.44,3.31-3.45,3.94l2.82,2.81,7.77-5.7,2.08-1.53c-.03-7.53-6.19-13.16-14.03-13.16h-18.28v19.58h8.96l.03-11.11h9.05c2.9,0,4.91,2.21,5.05,5.16Z"/>
      <path class="st0" d="M76.47,42.18l-3.76-3.75c-2,.24-4,.2-5.14.2h-.27s0,.03,0,.05v8.42h.5c1.08,0,2.23-.01,3.42-.06l5.25-4.86Z"/>
      <path class="st0" d="M79.76,42.3l2.31,2.31c3.35-1.85,5.79-5.06,5.96-10.64,0-.16,0-.31-.01-.47l-8.26,8.81Z"/>
    </g>
    <path class="st0" d="M55.51,57.86c3.13,5.26,3.75,10.97,3.75,10.97h.89s0-11.9,0-11.9c-1.56-.24-2.11-1.13-2.11-2.2,0-1.25,1.01-2.27,2.39-2.27s2.21,1.02,2.21,2.27c0,1.12-.62,2.12-2.01,2.31l-.02,11.79h.87s.25-5.71,3.38-10.97c1.43-2.4,3.54-3.98,4.71-4.74-5.64-.76-5.06-9.29-5.06-9.29l-8.66-.06s.4,8.78-5.05,9.44c1.17.76,3.28,2.25,4.71,4.65Z"/>
  </g>
  <rect class="st0" x="99.39" y="13.07" width="1.18" height="63.01"/>
</svg>